<svg width="27" height="27" viewBox="0 0 27 27" fill="none" xmlns="http://www.w3.org/2000/svg">
<g filter="url(#filter0_d_2_542)">
<path d="M14.5 6.5V0.5H22.5V6.5H14.5V6.5M4.5 10.5V0.5H12.5V10.5H4.5V10.5M14.5 18.5V8.5H22.5V18.5H14.5V18.5M4.5 18.5V12.5H12.5V18.5H4.5V18.5M6.5 8.5H10.5V2.5H6.5V8.5V8.5M16.5 16.5H20.5V10.5H16.5V16.5V16.5M16.5 4.5H20.5V2.5H16.5V4.5V4.5M6.5 16.5H10.5V14.5H6.5V16.5V16.5M10.5 8.5V8.5V8.5V8.5V8.5V8.5M16.5 4.5V4.5V4.5V4.5V4.5V4.5M16.5 10.5V10.5V10.5V10.5V10.5V10.5M10.5 14.5V14.5V14.5V14.5V14.5V14.5" fill="#007A7C"/>
<path d="M14.5 6.5V0.5H22.5V6.5H14.5V6.5M4.5 10.5V0.5H12.5V10.5H4.5V10.5M14.5 18.5V8.5H22.5V18.5H14.5V18.5M4.5 18.5V12.5H12.5V18.5H4.5V18.5M6.5 8.5H10.5V2.5H6.5V8.5V8.5M16.5 16.5H20.5V10.5H16.5V16.5V16.5M16.5 4.5H20.5V2.5H16.5V4.5V4.5M6.5 16.5H10.5V14.5H6.5V16.5V16.5M10.5 8.5V8.5V8.5V8.5V8.5V8.5M16.5 4.5V4.5V4.5V4.5V4.5V4.5M16.5 10.5V10.5V10.5V10.5V10.5V10.5M10.5 14.5V14.5V14.5V14.5V14.5V14.5" stroke="black" stroke-linejoin="bevel"/>
</g>
<defs>
<filter id="filter0_d_2_542" x="0" y="0" width="27" height="27" filterUnits="userSpaceOnUse" color-interpolation-filters="sRGB">
<feFlood flood-opacity="0" result="BackgroundImageFix"/>
<feColorMatrix in="SourceAlpha" type="matrix" values="0 0 0 0 0 0 0 0 0 0 0 0 0 0 0 0 0 0 127 0" result="hardAlpha"/>
<feOffset dy="4"/>
<feGaussianBlur stdDeviation="2"/>
<feComposite in2="hardAlpha" operator="out"/>
<feColorMatrix type="matrix" values="0 0 0 0 0 0 0 0 0 0 0 0 0 0 0 0 0 0 0.25 0"/>
<feBlend mode="normal" in2="BackgroundImageFix" result="effect1_dropShadow_2_542"/>
<feBlend mode="normal" in="SourceGraphic" in2="effect1_dropShadow_2_542" result="shape"/>
</filter>
</defs>
</svg>
